<?xml version="1.0" encoding="UTF-8"?>
<svg id="Laag_1" xmlns="http://www.w3.org/2000/svg" version="1.1" viewBox="0 0 40 40">
  <!-- Generator: Adobe Illustrator 29.2.0, SVG Export Plug-In . SVG Version: 2.1.0 Build 108)  -->
  <defs>
    <style>
      .st0 {
        fill: #fff;
      }
    </style>
  </defs>
  <path d="M16.7,39.8C7.2,38.1,0,29.9,0,20S9,0,20,0s20,9,20,20-7.2,18.1-16.7,19.8l-1.1-.9h-4.4s-1.1.9-1.1.9Z"/>
  <path class="st0" d="M27.8,25.6l.9-5.6h-5.3v-3.9c0-1.6.6-2.8,3-2.8h2.6v-5.1c-1.4-.2-3-.4-4.4-.4-4.6,0-7.8,2.8-7.8,7.8v4.4h-5v5.6h5v14.1c1.1.2,2.2.3,3.3.3s2.2,0,3.3-.3v-14.1h4.4Z"/>
</svg>